<svg width="79" height="16" viewBox="0 0 79 16" fill="none" xmlns="http://www.w3.org/2000/svg">
<path d="M0.26734 15C0.200673 15 0.16734 14.9667 0.16734 14.9L0.20734 1.16C0.20734 1.10667 0.234007 1.08 0.28734 1.08L4.02734 1.06C4.76067 1.04667 5.42734 1.22 6.02734 1.58C6.64067 1.94 7.12734 2.42667 7.48734 3.04C7.84734 3.64 8.02734 4.30667 8.02734 5.04V10.78C8.02734 11.5533 7.84067 12.26 7.46734 12.9C7.09401 13.5267 6.59401 14.0267 5.96734 14.4C5.34067 14.7733 4.63401 14.9667 3.84734 14.98L0.26734 15ZM2.60734 12.54H3.84734C4.34067 12.54 4.75401 12.3667 5.08734 12.02C5.43401 11.6733 5.60734 11.26 5.60734 10.78V5.02C5.60734 4.59333 5.44734 4.22667 5.12734 3.92C4.82067 3.6 4.45401 3.44667 4.02734 3.46L2.62734 3.48L2.60734 12.54ZM9.68093 15C9.6276 15 9.60093 14.9667 9.60093 14.9L9.64093 1.16C9.64093 1.10667 9.6676 1.08 9.72093 1.08H13.7609C14.4809 1.08 15.1409 1.26 15.7409 1.62C16.3543 1.96667 16.8409 2.44 17.2009 3.04C17.5609 3.62667 17.7409 4.29333 17.7409 5.04C17.7409 5.53333 17.6676 5.98 17.5209 6.38C17.3743 6.76667 17.2009 7.1 17.0009 7.38C16.8009 7.64667 16.6209 7.84667 16.4609 7.98C17.1809 8.78 17.5409 9.72 17.5409 10.8L17.5609 14.9C17.5609 14.9667 17.5276 15 17.4609 15H15.2009C15.1476 15 15.1209 14.98 15.1209 14.94V10.8C15.1209 10.32 14.9476 9.90667 14.6009 9.56C14.2676 9.2 13.8543 9.02 13.3609 9.02H12.0409L12.0209 14.9C12.0209 14.9667 11.9943 15 11.9409 15H9.68093ZM12.0409 6.62H13.7609C14.1743 6.62 14.5409 6.46667 14.8609 6.16C15.1809 5.85333 15.3409 5.48 15.3409 5.04C15.3409 4.61333 15.1809 4.24667 14.8609 3.94C14.5543 3.63333 14.1876 3.48 13.7609 3.48H12.0409V6.62ZM19.3494 15C19.2827 15 19.2494 14.9667 19.2494 14.9L19.2694 1.16C19.2694 1.10667 19.296 1.08 19.3494 1.08H21.5894C21.6427 1.08 21.6694 1.10667 21.6694 1.16L21.6894 14.9C21.6894 14.9667 21.6627 15 21.6094 15H19.3494ZM25.6886 15C25.6353 15 25.6019 14.9667 25.5886 14.9L22.8286 1.16C22.8153 1.10667 22.8419 1.08 22.9086 1.08H25.1686C25.2219 1.08 25.2553 1.10667 25.2686 1.16L26.9086 10.32L28.5086 1.16C28.5219 1.10667 28.5553 1.08 28.6086 1.08H30.8486C30.9153 1.08 30.9419 1.10667 30.9286 1.16L28.2086 14.9C28.1953 14.9667 28.1619 15 28.1086 15H25.6886ZM32.1809 15C32.1276 15 32.1009 14.9667 32.1009 14.9L32.1209 1.16C32.1209 1.10667 32.1476 1.08 32.2009 1.08H38.6209C38.6743 1.08 38.7009 1.11333 38.7009 1.18V3.42C38.7009 3.47333 38.6743 3.5 38.6209 3.5H34.5209V6.62H38.6209C38.6743 6.62 38.7009 6.64667 38.7009 6.7L38.7209 8.96C38.7209 9.01333 38.6943 9.04 38.6409 9.04H34.5209V12.54H38.6409C38.6943 12.54 38.7209 12.5733 38.7209 12.64V14.92C38.7209 14.9733 38.6943 15 38.6409 15H32.1809ZM43.5481 15C43.4948 15 43.4681 14.9667 43.4681 14.9L43.5081 1.16C43.5081 1.10667 43.5348 1.08 43.5881 1.08H46.0281C46.0815 1.08 46.1281 1.10667 46.1681 1.16L47.9881 3.8L49.8081 1.16C49.8481 1.10667 49.8948 1.08 49.9481 1.08H52.4081C52.4615 1.08 52.4881 1.10667 52.4881 1.16L52.5281 14.9C52.5281 14.9667 52.5015 15 52.4481 15H50.1881C50.1348 15 50.1081 14.9667 50.1081 14.9L50.0881 4.7L47.9881 7.74L45.9081 4.7L45.8881 14.9C45.8881 14.9667 45.8615 15 45.8081 15H43.5481ZM57.9103 15.2C57.1903 15.2 56.5303 15.02 55.9303 14.66C55.3436 14.2867 54.8703 13.8 54.5103 13.2C54.1503 12.5867 53.9703 11.9133 53.9703 11.18L53.9903 4.84C53.9903 4.10667 54.1636 3.44 54.5103 2.84C54.8703 2.24 55.3503 1.76 55.9503 1.4C56.5503 1.04 57.2036 0.86 57.9103 0.86C58.6303 0.86 59.2836 1.04 59.8703 1.4C60.457 1.76 60.9236 2.24 61.2703 2.84C61.6303 3.44 61.8103 4.10667 61.8103 4.84L61.8303 11.18C61.8303 11.9133 61.6503 12.5867 61.2903 13.2C60.9436 13.8 60.4703 14.2867 59.8703 14.66C59.2836 15.02 58.6303 15.2 57.9103 15.2ZM57.9103 12.78C58.3103 12.78 58.657 12.62 58.9503 12.3C59.257 11.9667 59.4103 11.5933 59.4103 11.18L59.3903 4.84C59.3903 4.4 59.2503 4.02667 58.9703 3.72C58.6903 3.41333 58.337 3.26 57.9103 3.26C57.497 3.26 57.1436 3.41333 56.8503 3.72C56.557 4.01333 56.4103 4.38667 56.4103 4.84V11.18C56.4103 11.62 56.557 12 56.8503 12.32C57.1436 12.6267 57.497 12.78 57.9103 12.78ZM65.097 15C65.0437 15 65.017 14.9667 65.017 14.9V3.5H62.417C62.3504 3.5 62.317 3.46667 62.317 3.4L62.337 1.16C62.337 1.10667 62.3637 1.08 62.417 1.08H70.017C70.0837 1.08 70.117 1.10667 70.117 1.16V3.4C70.117 3.46667 70.0904 3.5 70.037 3.5H67.417L67.437 14.9C67.437 14.9667 67.4104 15 67.357 15H65.097ZM74.3556 15.2C73.6356 15.2 72.9756 15.02 72.3756 14.66C71.789 14.2867 71.3156 13.8 70.9556 13.2C70.5956 12.5867 70.4156 11.9133 70.4156 11.18L70.4356 4.84C70.4356 4.10667 70.609 3.44 70.9556 2.84C71.3156 2.24 71.7956 1.76 72.3956 1.4C72.9956 1.04 73.649 0.86 74.3556 0.86C75.0756 0.86 75.729 1.04 76.3156 1.4C76.9023 1.76 77.369 2.24 77.7156 2.84C78.0756 3.44 78.2556 4.10667 78.2556 4.84L78.2756 11.18C78.2756 11.9133 78.0956 12.5867 77.7356 13.2C77.389 13.8 76.9156 14.2867 76.3156 14.66C75.729 15.02 75.0756 15.2 74.3556 15.2ZM74.3556 12.78C74.7556 12.78 75.1023 12.62 75.3956 12.3C75.7023 11.9667 75.8556 11.5933 75.8556 11.18L75.8356 4.84C75.8356 4.4 75.6956 4.02667 75.4156 3.72C75.1356 3.41333 74.7823 3.26 74.3556 3.26C73.9423 3.26 73.589 3.41333 73.2956 3.72C73.0023 4.01333 72.8556 4.38667 72.8556 4.84V11.18C72.8556 11.62 73.0023 12 73.2956 12.32C73.589 12.6267 73.9423 12.78 74.3556 12.78Z" fill="#2F3035"/>
</svg>
